# xmcd
# 
# Track frame offsets:
#     150
#     17842
#     32979
#     49302
#     67133
#     82339
#     98903
#     116552
#     132843
#     148527
#     162540
#     176061
#     192160
#     209648
#     227354
# 
# Disc length: 3253
# 
# Revision: 0
# Processed by: cddbd v1.5.2PL0 Copyright (c) Steve Scherf et al.
# Submitted via: BonkEnc v1.0
# 
DISCID=e20cb30f
DTITLE=Bruno E Marrone - Meu Presente É Você
DYEAR=2005
DGENRE=Sertanejo
TTITLE0=Choram As Rosas
TTITLE1=Cuida Do Nosso Amor
TTITLE2=Quer Casar Comigo?
TTITLE3=Por Um Gole A Mais
TTITLE4=Faz Mais, Faz
TTITLE5=Por Que Choras?
TTITLE6=Por Te Amar Demais
TTITLE7=Vai Sofrer Pra Lá
TTITLE8=Que Pescar Que Nada
TTITLE9=Não Tem Outro Jeito
TTITLE10=A Culpa É Sua (Conselho)
TTITLE11=Raridade
TTITLE12=Meu Presente É Você
TTITLE13=Uma Grande Mentira
TTITLE14=Se Não For Por Amor
EXTD=
EXTT0=
EXTT1=
EXTT2=
EXTT3=
EXTT4=
EXTT5=
EXTT6=
EXTT7=
EXTT8=
EXTT9=
EXTT10=
EXTT11=
EXTT12=
EXTT13=
EXTT14=
PLAYORDER=
